General
Complete name: Argo 2012 TS x264 AAC-UNiQUE.mp4
Format: MPEG-4
Format profile: Base Media
Codec ID: isom
File size: 1.46 GiB
Duration: 1h 51mn
Overall bit rate mode: Variable
Overall bit rate: 1 874 Kbps
Encoded date: UTC 2012-10-21 21:21:13

Video
ID: 1
Format: AVC
Format/Info: Advanced Video Codec
Format profile: High@L4.1
Format settings, CABAC: Yes
Format settings, ReFrames: 3 frames
Codec ID: avc1
Codec ID/Info: Advanced Video Coding
Duration: 1h 51mn
Bit rate mode: Variable
Bit rate: 1 738 Kbps
Maximum bit rate: 40.0 Mbps
Width: 720 pixels
Height: 336 pixels
Display aspect ratio: 2.143
Frame rate mode: Constant
Frame rate: 23.976 fps
Color space: YUV
Chroma subsampling: 4:2:0
Bit depth: 8 bits
Scan type: Progressive
Bits/(Pixel*Frame): 0.300
Stream size: 1.35 GiB (93%)
Writing library: x264 core 128 r2216 198a7ea

Audio
ID: 2
Format: AAC
Format/Info: Advanced Audio Codec
Format profile: LC
Codec ID: 40
Duration: 1h 51mn
Bit rate mode: Variable
Bit rate: 132 Kbps
Maximum bit rate: 160 Kbps
Channel(s): 2 channels
Channel positions: Front: L R
Sampling rate: 44.1 KHz
Compression mode: Lossy
Stream size: 105 MiB (7%)
Language: English
Encoded date: UTC 2012-10-21 21:22:30

Sources: Video - SHOWTiME - Thanks!
             : Audio - Jiinx - Thanks!

Storyline
In 1979, the American embassy in Iran was invaded by Iranian revolutionaries and several Americans are taken hostage. However, six manage to escape to the official residence of the Canadian Ambassador and the CIA is eventually ordered to get them out of the country

iMDB: http://www.imdb.com/title/tt1024648/  
http://i.imgur.com/WH39h.png 
http://i.imgur.com/mpZ8W.png 
http://i.imgur.com/JwhAo.png 
http://i.imgur.com/NM8PW.png 
http://i.imgur.com/pDM88.png
